<svg xmlns="http://www.w3.org/2000/svg" version="1.1" xmlns:xlink="http://www.w3.org/1999/xlink" xmlns:svgjs="http://svgjs.com/svgjs" width="1920" height="1080" preserveAspectRatio="none" viewBox="0 0 1920 1080"><g mask="url(&quot;#SvgjsMask1164&quot;)" fill="none"><rect width="1920" height="1080" x="0" y="0" fill="#1e3266"></rect><path d="M2080 1080L0 1080 L0 856.04Q72.4 768.44, 160 840.84Q269.3 790.14, 320 899.44Q343.98 827.42, 416 851.4Q430.51 769.91, 512 784.42Q579.91 692.33, 672 760.23Q747.76 739.99, 768 815.75Q862.1 749.85, 928 843.94Q968.74 724.68, 1088 765.43Q1192.13 709.57, 1248 813.7Q1315.55 721.25, 1408 788.8Q1494.79 715.59, 1568 802.38Q1665.18 739.56, 1728 836.73Q1792.55 805.28, 1824 869.82Q1845.94 795.76, 1920 817.69Q2013 750.7, 2080 843.7z" fill="rgba(37, 70, 125, 1)"></path><path d="M1984 1080L0 1080 L0 885.37Q100.21 889.58, 96 989.79Q81.46 879.25, 192 864.71Q299.86 812.57, 352 920.42Q470.12 878.54, 512 996.66Q515.1 903.76, 608 906.86Q695.5 834.36, 768 921.85Q845.78 903.63, 864 981.42Q931.79 889.21, 1024 957.01Q1080.94 853.95, 1184 910.9Q1220.01 850.91, 1280 886.92Q1357.41 868.34, 1376 945.75Q1485.94 895.69, 1536 1005.63Q1552.28 861.91, 1696 878.2Q1752.94 839.14, 1792 896.09Q1858.67 866.77, 1888 933.44Q1952.74 902.18, 1984 966.92z" fill="rgba(53, 108, 177, 1)"></path><path d="M1984 1080L0 1080 L0 1076.69Q35.06 951.75, 160 986.81Q269.54 936.35, 320 1045.89Q415.43 981.32, 480 1076.75Q550.3 987.05, 640 1057.35Q680.32 937.66, 800 977.98Q892.72 910.7, 960 1003.43Q1026.07 973.5, 1056 1039.58Q1076.78 964.36, 1152 985.13Q1247.1 920.23, 1312 1015.33Q1383.84 927.17, 1472 999.01Q1567.61 934.62, 1632 1030.22Q1711.21 1013.43, 1728 1092.63Q1815.82 1020.45, 1888 1108.28Q1917.57 1041.85, 1984 1071.41z" fill="rgba(255, 255, 255, 1)"></path></g><defs><mask id="SvgjsMask1164"><rect width="1920" height="1080" fill="#ffffff"></rect></mask></defs></svg>